<mxfile host="www.draw.io" modified="2020-04-09T08:04:44.155Z" agent="Mozilla/5.0 (Windows NT 10.0; Win64; x64) AppleWebKit/537.36 (KHTML, like Gecko) Chrome/80.0.3987.149 Safari/537.36" etag="LXFwRo3_AUtWV-smLQ6n" version="12.9.3" type="github">
  <diagram id="1WlQBmX9EzcYJ1-Lr1KR" name="Page-1">
    <mxGraphModel dx="1340" dy="9802" grid="1" gridSize="10" guides="1" tooltips="1" connect="1" arrows="1" fold="1" page="1" pageScale="1" pageWidth="9000" pageHeight="9000" math="0" shadow="0">
      <root>
        <mxCell id="0" />
        <mxCell id="1" parent="0" />
        <mxCell id="uTPR0Xm62mOcXkIkS7oy-35" value="" style="rounded=0;whiteSpace=wrap;html=1;" vertex="1" parent="1">
          <mxGeometry x="1165" y="690" width="210" height="470" as="geometry" />
        </mxCell>
        <mxCell id="uTPR0Xm62mOcXkIkS7oy-34" value="" style="rounded=0;whiteSpace=wrap;html=1;" vertex="1" parent="1">
          <mxGeometry x="910" y="690" width="210" height="470" as="geometry" />
        </mxCell>
        <mxCell id="uTPR0Xm62mOcXkIkS7oy-4" value="" style="edgeStyle=orthogonalEdgeStyle;rounded=0;orthogonalLoop=1;jettySize=auto;html=1;" edge="1" parent="1" source="uTPR0Xm62mOcXkIkS7oy-1" target="uTPR0Xm62mOcXkIkS7oy-2">
          <mxGeometry relative="1" as="geometry" />
        </mxCell>
        <mxCell id="uTPR0Xm62mOcXkIkS7oy-1" value="platform microservices" style="rounded=0;whiteSpace=wrap;html=1;" vertex="1" parent="1">
          <mxGeometry x="660" y="-300" width="120" height="60" as="geometry" />
        </mxCell>
        <mxCell id="uTPR0Xm62mOcXkIkS7oy-5" value="" style="edgeStyle=orthogonalEdgeStyle;rounded=0;orthogonalLoop=1;jettySize=auto;html=1;" edge="1" parent="1" source="uTPR0Xm62mOcXkIkS7oy-2" target="uTPR0Xm62mOcXkIkS7oy-3">
          <mxGeometry relative="1" as="geometry" />
        </mxCell>
        <mxCell id="uTPR0Xm62mOcXkIkS7oy-2" value="powercurve" style="rounded=0;whiteSpace=wrap;html=1;" vertex="1" parent="1">
          <mxGeometry x="660" y="-180" width="120" height="60" as="geometry" />
        </mxCell>
        <mxCell id="uTPR0Xm62mOcXkIkS7oy-3" value="usecase" style="rounded=0;whiteSpace=wrap;html=1;" vertex="1" parent="1">
          <mxGeometry x="660" y="-40" width="120" height="60" as="geometry" />
        </mxCell>
        <mxCell id="uTPR0Xm62mOcXkIkS7oy-6" value="master-success" style="text;html=1;align=center;verticalAlign=middle;resizable=0;points=[];autosize=1;" vertex="1" parent="1">
          <mxGeometry x="726" y="-198" width="100" height="20" as="geometry" />
        </mxCell>
        <mxCell id="uTPR0Xm62mOcXkIkS7oy-7" value="master-success" style="text;html=1;align=center;verticalAlign=middle;resizable=0;points=[];autosize=1;" vertex="1" parent="1">
          <mxGeometry x="736" y="-60" width="100" height="20" as="geometry" />
        </mxCell>
        <mxCell id="uTPR0Xm62mOcXkIkS7oy-10" value="" style="edgeStyle=orthogonalEdgeStyle;rounded=0;orthogonalLoop=1;jettySize=auto;html=1;" edge="1" parent="1" source="uTPR0Xm62mOcXkIkS7oy-8" target="uTPR0Xm62mOcXkIkS7oy-9">
          <mxGeometry relative="1" as="geometry" />
        </mxCell>
        <mxCell id="uTPR0Xm62mOcXkIkS7oy-11" value="6 weeks" style="text;html=1;align=center;verticalAlign=middle;resizable=0;points=[];labelBackgroundColor=#ffffff;" vertex="1" connectable="0" parent="uTPR0Xm62mOcXkIkS7oy-10">
          <mxGeometry x="-0.0859" y="-1" relative="1" as="geometry">
            <mxPoint as="offset" />
          </mxGeometry>
        </mxCell>
        <mxCell id="uTPR0Xm62mOcXkIkS7oy-8" value="microservicses" style="rounded=0;whiteSpace=wrap;html=1;" vertex="1" parent="1">
          <mxGeometry x="330" y="790" width="120" height="60" as="geometry" />
        </mxCell>
        <mxCell id="uTPR0Xm62mOcXkIkS7oy-31" value="" style="edgeStyle=orthogonalEdgeStyle;rounded=0;orthogonalLoop=1;jettySize=auto;html=1;" edge="1" parent="1" source="uTPR0Xm62mOcXkIkS7oy-9" target="uTPR0Xm62mOcXkIkS7oy-30">
          <mxGeometry relative="1" as="geometry" />
        </mxCell>
        <mxCell id="uTPR0Xm62mOcXkIkS7oy-9" value="rc" style="rounded=1;whiteSpace=wrap;html=1;" vertex="1" parent="1">
          <mxGeometry x="586" y="790" width="120" height="60" as="geometry" />
        </mxCell>
        <mxCell id="uTPR0Xm62mOcXkIkS7oy-30" value="microservicse" style="rounded=0;whiteSpace=wrap;html=1;" vertex="1" parent="1">
          <mxGeometry x="950" y="790" width="120" height="60" as="geometry" />
        </mxCell>
        <mxCell id="uTPR0Xm62mOcXkIkS7oy-14" value="" style="edgeStyle=orthogonalEdgeStyle;rounded=0;orthogonalLoop=1;jettySize=auto;html=1;" edge="1" parent="1" source="uTPR0Xm62mOcXkIkS7oy-12" target="uTPR0Xm62mOcXkIkS7oy-13">
          <mxGeometry relative="1" as="geometry" />
        </mxCell>
        <mxCell id="uTPR0Xm62mOcXkIkS7oy-15" value="x weeks" style="text;html=1;align=center;verticalAlign=middle;resizable=0;points=[];labelBackgroundColor=#ffffff;" vertex="1" connectable="0" parent="uTPR0Xm62mOcXkIkS7oy-14">
          <mxGeometry x="-0.1406" y="4" relative="1" as="geometry">
            <mxPoint as="offset" />
          </mxGeometry>
        </mxCell>
        <mxCell id="uTPR0Xm62mOcXkIkS7oy-12" value="powercurve-base" style="rounded=0;whiteSpace=wrap;html=1;" vertex="1" parent="1">
          <mxGeometry x="330" y="920" width="120" height="60" as="geometry" />
        </mxCell>
        <mxCell id="uTPR0Xm62mOcXkIkS7oy-36" style="edgeStyle=orthogonalEdgeStyle;rounded=0;orthogonalLoop=1;jettySize=auto;html=1;dashed=1;" edge="1" parent="1" source="uTPR0Xm62mOcXkIkS7oy-13" target="uTPR0Xm62mOcXkIkS7oy-23">
          <mxGeometry relative="1" as="geometry" />
        </mxCell>
        <mxCell id="uTPR0Xm62mOcXkIkS7oy-13" value="rc" style="rounded=1;whiteSpace=wrap;html=1;" vertex="1" parent="1">
          <mxGeometry x="586" y="920" width="120" height="60" as="geometry" />
        </mxCell>
        <mxCell id="uTPR0Xm62mOcXkIkS7oy-17" value="candidate-success=true" style="text;html=1;strokeColor=none;fillColor=none;align=center;verticalAlign=middle;whiteSpace=wrap;rounded=0;" vertex="1" parent="1">
          <mxGeometry x="706" y="960" width="144" height="20" as="geometry" />
        </mxCell>
        <mxCell id="uTPR0Xm62mOcXkIkS7oy-18" value="candidate-success=true" style="text;html=1;strokeColor=none;fillColor=none;align=center;verticalAlign=middle;whiteSpace=wrap;rounded=0;" vertex="1" parent="1">
          <mxGeometry x="700" y="830" width="144" height="20" as="geometry" />
        </mxCell>
        <mxCell id="uTPR0Xm62mOcXkIkS7oy-24" value="" style="edgeStyle=orthogonalEdgeStyle;rounded=0;orthogonalLoop=1;jettySize=auto;html=1;" edge="1" parent="1" source="uTPR0Xm62mOcXkIkS7oy-22" target="uTPR0Xm62mOcXkIkS7oy-23">
          <mxGeometry relative="1" as="geometry" />
        </mxCell>
        <mxCell id="uTPR0Xm62mOcXkIkS7oy-22" value="usecase" style="rounded=0;whiteSpace=wrap;html=1;" vertex="1" parent="1">
          <mxGeometry x="330" y="1060" width="120" height="60" as="geometry" />
        </mxCell>
        <mxCell id="uTPR0Xm62mOcXkIkS7oy-27" value="" style="edgeStyle=orthogonalEdgeStyle;rounded=0;orthogonalLoop=1;jettySize=auto;html=1;" edge="1" parent="1" source="uTPR0Xm62mOcXkIkS7oy-23" target="uTPR0Xm62mOcXkIkS7oy-26">
          <mxGeometry relative="1" as="geometry" />
        </mxCell>
        <mxCell id="uTPR0Xm62mOcXkIkS7oy-23" value="rc" style="rounded=1;whiteSpace=wrap;html=1;" vertex="1" parent="1">
          <mxGeometry x="586" y="1060" width="120" height="60" as="geometry" />
        </mxCell>
        <mxCell id="uTPR0Xm62mOcXkIkS7oy-26" value="pc-userjourney" style="rounded=1;whiteSpace=wrap;html=1;" vertex="1" parent="1">
          <mxGeometry x="1210" y="1060" width="120" height="60" as="geometry" />
        </mxCell>
        <mxCell id="uTPR0Xm62mOcXkIkS7oy-25" value="candidate-success=true" style="text;html=1;strokeColor=none;fillColor=none;align=center;verticalAlign=middle;whiteSpace=wrap;rounded=0;" vertex="1" parent="1">
          <mxGeometry x="716" y="1100" width="144" height="20" as="geometry" />
        </mxCell>
        <mxCell id="uTPR0Xm62mOcXkIkS7oy-28" value="rc-system-integration stack" style="text;html=1;strokeColor=none;fillColor=none;align=center;verticalAlign=middle;whiteSpace=wrap;rounded=0;" vertex="1" parent="1">
          <mxGeometry x="925" y="700" width="170" height="20" as="geometry" />
        </mxCell>
        <mxCell id="uTPR0Xm62mOcXkIkS7oy-32" value="usecase stack" style="text;html=1;strokeColor=none;fillColor=none;align=center;verticalAlign=middle;whiteSpace=wrap;rounded=0;" vertex="1" parent="1">
          <mxGeometry x="1180" y="700" width="170" height="20" as="geometry" />
        </mxCell>
        <mxCell id="uTPR0Xm62mOcXkIkS7oy-39" value="test" style="edgeStyle=orthogonalEdgeStyle;rounded=0;orthogonalLoop=1;jettySize=auto;html=1;" edge="1" parent="1" source="uTPR0Xm62mOcXkIkS7oy-37" target="uTPR0Xm62mOcXkIkS7oy-26">
          <mxGeometry relative="1" as="geometry" />
        </mxCell>
        <mxCell id="uTPR0Xm62mOcXkIkS7oy-41" style="edgeStyle=orthogonalEdgeStyle;rounded=0;orthogonalLoop=1;jettySize=auto;html=1;" edge="1" parent="1" source="uTPR0Xm62mOcXkIkS7oy-37" target="uTPR0Xm62mOcXkIkS7oy-26">
          <mxGeometry relative="1" as="geometry">
            <Array as="points">
              <mxPoint x="350" y="1260" />
              <mxPoint x="1270" y="1260" />
            </Array>
          </mxGeometry>
        </mxCell>
        <mxCell id="uTPR0Xm62mOcXkIkS7oy-42" value="tag integration-sucess=true" style="text;html=1;align=center;verticalAlign=middle;resizable=0;points=[];labelBackgroundColor=#ffffff;" vertex="1" connectable="0" parent="uTPR0Xm62mOcXkIkS7oy-41">
          <mxGeometry x="-0.087" relative="1" as="geometry">
            <mxPoint as="offset" />
          </mxGeometry>
        </mxCell>
        <mxCell id="uTPR0Xm62mOcXkIkS7oy-37" value="testpipeline-saas-cucumber-powercurve" style="rounded=0;whiteSpace=wrap;html=1;" vertex="1" parent="1">
          <mxGeometry x="240" y="1180" width="220" height="60" as="geometry" />
        </mxCell>
        <mxCell id="uTPR0Xm62mOcXkIkS7oy-43" value="- pc-userjourney&lt;br&gt;- powercurve-base" style="text;html=1;align=left;verticalAlign=middle;resizable=0;points=[];autosize=1;" vertex="1" parent="1">
          <mxGeometry x="780" y="1270" width="110" height="30" as="geometry" />
        </mxCell>
        <mxCell id="uTPR0Xm62mOcXkIkS7oy-45" style="edgeStyle=orthogonalEdgeStyle;rounded=0;orthogonalLoop=1;jettySize=auto;html=1;entryX=0.571;entryY=-0.002;entryDx=0;entryDy=0;entryPerimeter=0;" edge="1" parent="1" source="uTPR0Xm62mOcXkIkS7oy-44" target="uTPR0Xm62mOcXkIkS7oy-34">
          <mxGeometry relative="1" as="geometry" />
        </mxCell>
        <mxCell id="uTPR0Xm62mOcXkIkS7oy-46" value="selector=candidate-success, and update stack" style="text;html=1;align=center;verticalAlign=middle;resizable=0;points=[];labelBackgroundColor=#ffffff;" vertex="1" connectable="0" parent="uTPR0Xm62mOcXkIkS7oy-45">
          <mxGeometry x="-0.1701" y="-3" relative="1" as="geometry">
            <mxPoint as="offset" />
          </mxGeometry>
        </mxCell>
        <mxCell id="uTPR0Xm62mOcXkIkS7oy-44" value="synch-task" style="rounded=0;whiteSpace=wrap;html=1;align=left;" vertex="1" parent="1">
          <mxGeometry x="310" y="630" width="120" height="60" as="geometry" />
        </mxCell>
        <mxCell id="uTPR0Xm62mOcXkIkS7oy-50" value="" style="rounded=0;whiteSpace=wrap;html=1;align=left;" vertex="1" parent="1">
          <mxGeometry x="220" y="1360" width="120" height="60" as="geometry" />
        </mxCell>
      </root>
    </mxGraphModel>
  </diagram>
</mxfile>
